<?xml version="1.0" encoding="UTF-8"?>
<svg version="1.1" xmlns="http://www.w3.org/2000/svg" width="938" height="938">
<path d="M0 0 C309.54 0 619.08 0 938 0 C938 309.54 938 619.08 938 938 C628.46 938 318.92 938 0 938 C0 628.46 0 318.92 0 0 Z " fill="#FEFEFE" transform="translate(0,0)"/>
<path d="M0 0 C1.12498901 0.24786255 1.12498901 0.24786255 2.27270508 0.50073242 C6.44060853 1.50684339 9.62077178 2.83590824 13.25 5.1875 C14.05179688 5.48785156 14.85359375 5.78820312 15.6796875 6.09765625 C18.98108521 7.49748902 21.52734544 9.45178994 24.375 11.625 C25.40882813 12.40746094 26.44265625 13.18992187 27.5078125 13.99609375 C29.57652463 15.64929533 31.44982008 17.25696223 33.25 19.1875 C31.98062897 21.95190335 30.65906432 24.04244921 28.54785156 26.2277832 C27.7362558 27.07304314 27.7362558 27.07304314 26.90826416 27.93537903 C26.03328278 28.82781563 26.03328278 28.82781563 25.140625 29.73828125 C24.53619568 30.35648239 23.93176636 30.97468353 23.309021 31.61161804 C22.03088125 32.91298677 20.74974091 34.21141435 19.46582031 35.50708008 C17.50486867 37.49506421 15.56920642 39.50570517 13.6328125 41.51757812 C12.38691393 42.78012511 11.13956534 44.04124318 9.890625 45.30078125 C9.315401 45.90586014 8.740177 46.51093903 8.14752197 47.13435364 C6.57118387 48.69381817 5.1423273 50.03149147 3.25 51.1875 C-1.42963935 51.13185751 -4.63596913 49.28828172 -8.75 47.1875 C-17.45975668 45.02103952 -26.61667903 45.29688434 -34.75 49.1875 C-40.48261577 52.93425575 -45.38176871 57.52189276 -50.20410156 62.35107422 C-50.90110168 63.04135712 -51.59810181 63.73164001 -52.31622314 64.44284058 C-54.59629047 66.70406021 -56.86888414 68.97260484 -59.140625 71.2421875 C-60.73372181 72.82885 -62.32696558 74.41536495 -63.92034912 76.0017395 C-67.24896184 79.3184146 -70.57345308 82.6391593 -73.89550781 85.96240234 C-78.14440428 90.21150243 -82.40691826 94.44665225 -86.673069 98.67841911 C-89.96394785 101.94702748 -93.24566265 105.22471961 -96.52489471 108.5050087 C-98.09250002 110.07026068 -99.66333392 111.63228636 -101.23749542 113.19094467 C-103.43914545 115.37292183 -105.62767045 117.56730315 -107.81347656 119.76513672 C-108.45978027 120.40020142 -109.10608398 121.03526611 -109.77197266 121.6895752 C-116.93358083 128.95135497 -120.71920186 137.45591772 -121 147.6875 C-120.65233874 159.63068683 -115.12305181 168.44795869 -106.76000977 176.66333008 C-106.07641388 177.35072266 -105.39281799 178.03811523 -104.68850708 178.74633789 C-102.44909556 180.99309807 -100.19571928 183.22523116 -97.94140625 185.45703125 C-96.3703582 187.0256919 -94.80005226 188.59509611 -93.23045349 190.16520691 C-89.94909392 193.44344843 -86.66115724 196.71489274 -83.36791992 199.98120117 C-79.15341088 204.16167622 -74.95224303 208.35525176 -70.75547886 212.5535326 C-67.51753364 215.79093333 -64.27439724 219.02309062 -61.02949333 222.25351524 C-59.47860934 223.79805062 -57.92891985 225.34378638 -56.38046455 226.89075661 C-54.21507737 229.05179349 -52.04322267 231.20611086 -49.86938477 233.35864258 C-49.23490921 233.99402451 -48.60043365 234.62940643 -47.94673157 235.28404236 C-40.51366346 242.61115967 -33.51836969 247.31030159 -22.9375 247.5625 C-5.23632174 247.05675205 2.95100639 236.66381725 14.875 224.625 C16.23818359 223.25504883 16.23818359 223.25504883 17.62890625 221.85742188 C19.83827955 219.63642029 22.04526031 217.41309967 24.25 215.1875 C22.77936999 211.77122409 20.87381294 209.58954301 18.22265625 207 C17.43052734 206.21882812 16.63839844 205.43765625 15.82226562 204.6328125 C14.57993164 203.42238281 14.57993164 203.42238281 13.3125 202.1875 C11.67610997 200.58565456 10.04190988 198.98156816 8.41015625 197.375 C7.68449463 196.66730469 6.95883301 195.95960938 6.21118164 195.23046875 C1.25 190.06239107 1.25 190.06239107 1.25 187.1875 C0.59 187.1875 -0.07 187.1875 -0.75 187.1875 C-10.66653453 165.53413557 -14.7462633 144.89643936 -6.87109375 121.5859375 C-5.9385138 119.37740089 -4.88351247 117.29924926 -3.75 115.1875 C-3.35296875 114.341875 -2.9559375 113.49625 -2.546875 112.625 C0.08964735 107.29134558 3.1391676 102.96991575 7.19140625 98.609375 C7.66909454 98.09507431 8.14678284 97.58077362 8.63894653 97.05088806 C14.1613248 91.14581779 19.88517408 85.44239674 25.625 79.75 C26.68904239 78.69099661 27.75284516 77.63175239 28.81640625 76.57226562 C30.76074636 74.6359656 32.70667902 72.70132228 34.65380859 70.76782227 C35.51055176 69.91631592 36.36729492 69.06480957 37.25 68.1875 C38.14412598 67.30441162 39.03825195 66.42132324 39.95947266 65.51147461 C42.28482979 63.232134 42.28482979 63.232134 44.25 60.6875 C47.44911126 56.68861093 50.94892164 53.00544789 55.25 50.1875 C55.91 50.1875 56.57 50.1875 57.25 50.1875 C58.58203125 51.54296875 58.58203125 51.54296875 60.0625 53.375 C63.87675892 57.95759884 68.01242783 61.98250247 72.4765625 65.9296875 C78.95799948 71.75993014 85.19036121 77.83426235 91.38232422 83.96972656 C92.70901823 85.27984096 94.0410577 86.58456459 95.37841797 87.88378906 C111.35865303 103.4137112 123.3619017 120.81328318 123.81982422 143.89257812 C123.81740723 145.02115234 123.81499023 146.14972656 123.8125 147.3125 C123.81008301 148.49521484 123.80766602 149.67792969 123.80517578 150.89648438 C123.59364308 161.03346343 121.61965887 169.10506817 117.25 178.1875 C116.80527344 179.18265625 116.36054688 180.1778125 115.90234375 181.203125 C108.4990831 196.31182021 94.44493627 208.31786887 82.71875 220.0546875 C81.03432388 221.74555694 79.3500411 223.43656916 77.66589355 225.12771606 C74.15627571 228.64922916 70.64263123 232.16666674 67.12646484 235.68164062 C62.64127618 240.16662536 58.17005343 244.66526185 53.70217133 249.16747856 C50.236171 252.65579197 46.76104128 256.13490053 43.28334045 259.61154556 C41.63124939 261.26598162 39.98236489 262.92362669 38.3368988 264.58465195 C21.83408963 281.22898517 21.83408963 281.22898517 12.25 286.1875 C11.5814801 286.53460022 10.91296021 286.88170044 10.22418213 287.23931885 C8.51109721 288.07447087 6.75654535 288.82311696 5 289.5625 C3.88109375 290.04460937 2.7621875 290.52671875 1.609375 291.0234375 C-5.74543501 293.57196469 -13.23863195 293.40072929 -20.9375 293.4375 C-22.52788086 293.4684375 -22.52788086 293.4684375 -24.15039062 293.5 C-34.86103525 293.55221521 -44.43948319 291.39812225 -53.9375 286.4375 C-54.57107422 286.128125 -55.20464844 285.81875 -55.85742188 285.5 C-64.71471329 280.99538358 -71.91882641 274.31838495 -78.89672852 267.34716797 C-79.65572449 266.59649551 -80.41472046 265.84582306 -81.19671631 265.07240295 C-83.67949733 262.61352185 -86.1547358 260.14723065 -88.62890625 257.6796875 C-90.36800829 255.94956616 -92.10718084 254.21951569 -93.84642029 252.48953247 C-97.48197086 248.87041958 -101.11315118 245.24698231 -104.74194336 241.62109375 C-109.36872098 236.99969776 -114.0114371 232.39467743 -118.65829563 227.79348564 C-122.25383657 224.22783521 -125.83792608 220.6508372 -129.41905022 217.07071304 C-131.1248025 215.36913827 -132.83463328 213.67164096 -134.548769 211.97851181 C-143.60888612 203.02065536 -151.90589631 194.60782371 -157.75 183.1875 C-158.25346451 182.21859833 -158.75692902 181.24969666 -159.27565002 180.25143433 C-167.58511575 163.6955616 -168.33043002 143.04751258 -162.90234375 125.4375 C-157.29527567 109.09301004 -147.75641017 97.85265545 -135.5625 85.875 C-134.58090436 84.90347534 -133.59978242 83.93147182 -132.61914062 82.95898438 C-130.81903766 81.17499624 -129.01583524 79.39438246 -127.21020508 77.6159668 C-124.71257766 75.15056043 -122.2313024 72.66931961 -119.75 70.1875 C-118.925 69.383125 -118.1 68.57875 -117.25 67.75 C-114.66719933 65.17809292 -114.66719933 65.17809292 -112.25 62.125 C-109.90961608 59.37504889 -107.59091652 57.3892103 -104.75 55.1875 C-103.06126121 53.54320171 -101.39694485 51.87365782 -99.75 50.1875 C-98.58467664 49.01949157 -97.41792998 47.85290199 -96.25 46.6875 C-95.64929688 46.08679688 -95.04859375 45.48609375 -94.4296875 44.8671875 C-78.75 29.1875 -78.75 29.1875 -76.30859375 26.76953125 C-74.5506069 24.9954407 -72.82538004 23.18846949 -71.12890625 21.35546875 C-52.51623976 1.44170338 -26.52795804 -5.87360008 0 0 Z " fill="#FB5758" transform="translate(330.75,320.8125)"/>
<path d="M0 0 C0.56823486 0.32105713 1.13646973 0.64211426 1.72192383 0.97290039 C14.90543763 8.98987713 25.66175106 21.99915564 36.4375 32.875 C39.36034918 35.82454477 42.28658277 38.7706728 45.21484375 41.71484375 C45.87322739 42.38152573 46.53161102 43.0482077 47.20994568 43.73509216 C50.49584746 47.03845615 53.80924288 50.07945193 57.5 52.9375 C58.65906655 54.19868695 59.78628296 55.4901071 60.875 56.8125 C63.65818836 60.07367071 66.57446793 62.84442664 69.875 65.5703125 C72.22996663 67.55165462 74.35351077 69.73452422 76.5 71.9375 C77.345625 72.7625 78.19125 73.5875 79.0625 74.4375 C81.5 76.9375 81.5 76.9375 83.5 79.5 C85.38755221 81.99404652 85.38755221 81.99404652 87.8125 83.6875 C99.70937877 93.64767758 108.10251087 109.71223749 110.5 124.9375 C112.28711149 148.34415843 109.06985884 168.13198896 93.61328125 186.58984375 C90.06328403 190.533556 86.31616098 194.25318335 82.5 197.9375 C81.5925 198.845 80.685 199.7525 79.75 200.6875 C78.24912502 202.18837498 76.7475879 203.68858813 75.24539185 205.18814087 C72.26232388 208.17551958 69.29205837 211.17523779 66.32373047 214.17724609 C60.23021768 220.33628107 54.12639784 226.48499626 48.01673698 232.6280117 C44.32967782 236.33592431 40.6464444 240.04747746 36.97167969 243.76757812 C33.40216024 247.3808315 29.82271242 250.98397866 26.23642349 254.58058548 C24.87988115 255.94445952 23.52683481 257.31182093 22.17754745 258.68287277 C14.78700958 266.18787274 7.81581807 272.85550169 -1.5 277.9375 C-2.65113281 278.57300781 -3.80226563 279.20851563 -4.98828125 279.86328125 C-5.92027344 280.32089844 -6.85226562 280.77851562 -7.8125 281.25 C-9.22982422 281.95576172 -9.22982422 281.95576172 -10.67578125 282.67578125 C-28.40007395 290.59410289 -49.57830033 289.7791882 -67.5625 283.25 C-79.11793454 278.80685596 -88.05416417 272.06322431 -96.87939453 263.50244141 C-98.63126771 261.81074103 -100.40729105 260.14647663 -102.18359375 258.48046875 C-103.39456853 257.32171061 -104.60423244 256.16158076 -105.8125 255 C-106.39435059 254.45649902 -106.97620117 253.91299805 -107.57568359 253.35302734 C-109.17578125 251.78515625 -109.17578125 251.78515625 -111.5 248.9375 C-111.04541487 244.32997241 -107.7553729 241.72521937 -104.63671875 238.60546875 C-104.04832718 238.00946365 -103.45993561 237.41345856 -102.85371399 236.7993927 C-101.6092379 235.54412419 -100.36077567 234.29279677 -99.10864258 233.04516602 C-97.19086579 231.12836408 -95.29541247 229.19122247 -93.40039062 227.25195312 C-92.1888025 226.03516002 -90.97595352 224.81962079 -89.76171875 223.60546875 C-88.91150398 222.73066109 -88.91150398 222.73066109 -88.04411316 221.83818054 C-86.41674805 220.23901367 -86.41674805 220.23901367 -83.5 217.9375 C-79.75579667 218.39502899 -78.12365807 219.98940873 -75.5625 222.6875 C-74.86253906 223.41195312 -74.16257812 224.13640625 -73.44140625 224.8828125 C-72.48041016 225.89988281 -72.48041016 225.89988281 -71.5 226.9375 C-63.34553698 235.49968617 -54.27109591 241.85883082 -42.0625 242.25 C-25.22380233 242.0261473 -15.34939381 232.13092569 -4.27026367 220.96850586 C-2.54894644 219.23636119 -0.81705533 217.51529812 0.91601562 215.79492188 C2.01626775 214.69334994 3.11590028 213.59115872 4.21484375 212.48828125 C4.73143051 211.97574295 5.24801727 211.46320465 5.78025818 210.93513489 C8.08036709 208.60447402 9.44884171 207.09097486 10.5 203.9375 C9.63375 203.5971875 9.63375 203.5971875 8.75 203.25 C5.91565264 201.5966307 4.53237811 199.50786056 2.5 196.9375 C1.56929688 196.18082031 0.63859375 195.42414063 -0.3203125 194.64453125 C-12.95858805 184.27914716 -21.25313609 167.26363247 -23.1875 151.1875 C-23.31530147 149.43906714 -23.41756317 147.68865815 -23.5 145.9375 C-23.55285156 144.89980469 -23.60570312 143.86210937 -23.66015625 142.79296875 C-24.16699508 123.51105665 -19.40723251 105.67973665 -6.5 90.9375 C-5.81035156 90.14085937 -5.12070312 89.34421875 -4.41015625 88.5234375 C0.36080647 83.12450191 5.34334094 77.96770148 10.5 72.9375 C5.66126704 67.08866117 0.44111419 61.65993116 -4.91259766 56.28466797 C-6.37222186 54.81529669 -7.82080312 53.33557374 -9.26953125 51.85546875 C-18.55873497 42.45770278 -26.58682436 36.52770678 -40.125 36.4375 C-54.11999133 36.54041471 -61.16749522 42.20032496 -70.75 51.8125 C-73.35978088 54.49653959 -75.94317813 57.2029945 -78.5 59.9375 C-83.52953999 58.45605698 -86.33940169 55.48853256 -89.89453125 51.8359375 C-90.48674973 51.23947418 -91.0789682 50.64301086 -91.68913269 50.0284729 C-93.57077354 48.13009897 -95.44168823 46.22154067 -97.3125 44.3125 C-98.58980001 43.02014627 -99.86778747 41.72847161 -101.14648438 40.4375 C-104.27234164 37.27864471 -107.38862334 34.1106166 -110.5 30.9375 C-103.77885535 15.24062112 -82.50817947 0.44272932 -67.22973633 -5.74633789 C-45.77978814 -14.06407096 -19.78900274 -11.47442368 0 0 Z " fill="#2676A7" transform="translate(508.5,329.0625)"/>
<path d="M0 0 C1.31291016 0.43505859 1.31291016 0.43505859 2.65234375 0.87890625 C21.13554176 7.68550767 34.77201831 22.45560124 48.390625 36.08984375 C49.83000677 37.52532526 51.2696068 38.96058796 52.70941162 40.39564514 C55.70452371 43.38335554 58.69581156 46.37483108 61.68457031 49.36889648 C65.48726063 53.1773929 69.30123285 56.97436496 73.1183815 60.768363 C76.08702407 63.72217879 79.04860982 66.68299407 82.00829315 69.64578438 C83.4107656 71.04774875 84.81555548 72.44739935 86.22284698 73.84452629 C103.2260873 90.73988095 120.4215184 110.71209003 121 136 C121.03867187 137.13953125 121.07734375 138.2790625 121.1171875 139.453125 C121.60750667 166.36619931 111.47020584 184.0275574 93.36938477 202.84521484 C92 204 92 204 90 204 C89.65799561 204.82987427 89.65799561 204.82987427 89.30908203 205.67651367 C87.62114486 208.672429 85.49214464 210.74942522 83.0546875 213.17578125 C82.56598175 213.66402878 82.077276 214.15227631 81.57376099 214.65531921 C80.53884333 215.68722198 79.50150249 216.71669944 78.46191406 217.74389648 C76.89599331 219.29174892 75.33803642 220.8472635 73.78125 222.40429688 C69.68548735 226.48014332 65.60644971 230.50006569 61.21972656 234.26269531 C56.4707595 238.3860938 52.12171526 242.86214899 47.7421875 247.37109375 C45.96431724 249.18110067 44.1856459 250.99032102 42.40625 252.79882812 C39.64105774 255.61322397 36.88067807 258.43164544 34.13378906 261.26391602 C14.43080615 281.55232867 14.43080615 281.55232867 2 287 C1.39925156 287.26644821 0.79850311 287.53289642 0.17955017 287.80741882 C-15.51081553 294.68327911 -35.82735528 295.75439869 -52 290 C-52.99128906 289.6596875 -53.98257813 289.319375 -55.00390625 288.96875 C-66.86719802 284.48403178 -75.30124137 276.97142722 -84.25 268.25 C-85.02625732 267.50459961 -85.80251465 266.75919922 -86.60229492 265.99121094 C-87.67314331 264.9204834 -87.67314331 264.9204834 -88.765625 263.828125 C-89.41305664 263.1877832 -90.06048828 262.54744141 -90.72753906 261.88769531 C-92 260 -92 260 -91.74153137 258.06530762 C-90.48046081 254.55298334 -87.61917989 252.25683404 -84.99609375 249.703125 C-84.39821548 249.10949158 -83.80033722 248.51585815 -83.18434143 247.90423584 C-81.27565898 246.01232805 -79.3568046 244.13112501 -77.4375 242.25 C-76.14059164 240.96813998 -74.84435922 239.6855957 -73.54882812 238.40234375 C-70.37367043 235.26023928 -67.18935054 232.12769461 -64 229 C-60.98921113 230.42616315 -59.28163043 231.59692968 -57.25 234.25 C-52.09943155 240.47738755 -45.13411252 246.1149895 -36.91186523 247.30126953 C-26.45501217 247.93558563 -16.72980767 247.8373765 -8.40893555 240.8125 C-1.10292835 234.04700268 6.02825584 227.12766856 13.05639648 220.07397461 C14.82487219 218.30008997 16.59870044 216.53168223 18.37304688 214.76367188 C23.63179943 209.5076736 28.84012893 204.26156616 33.6394043 198.57495117 C35.03513624 196.95932821 36.40591387 195.42237805 38 194 C38.66 194 39.32 194 40 194 C40.21156738 193.46101074 40.42313477 192.92202148 40.64111328 192.36669922 C42.50654743 189.11777385 45.07530328 186.71860919 47.7421875 184.1328125 C48.58935837 183.2970015 48.58935837 183.2970015 49.4536438 182.44430542 C51.86152918 180.06898654 54.2810244 177.70562426 56.69970703 175.34130859 C58.46804752 173.60933993 60.23020639 171.87124667 61.9921875 170.1328125 C62.53398651 169.60761017 63.07578552 169.08240784 63.63400269 168.54129028 C72.09101786 160.19301929 75.06124147 151.9702025 75.3125 140.1875 C75.18829481 127.0631519 67.64353301 118.32869664 58.69433594 109.41967773 C58.09504776 108.81527863 57.49575958 108.21087952 56.87831116 107.58816528 C54.91875055 105.61483775 52.95198639 103.64889156 50.984375 101.68359375 C49.60421365 100.29953835 48.22427362 98.91526222 46.84454346 97.53077698 C43.95981039 94.63860936 41.07126887 91.75031134 38.18017578 88.86450195 C34.49577591 85.18589245 30.82286231 81.49604858 27.1529808 77.8029623 C24.30817215 74.9433442 21.4563835 72.09076576 18.60260773 69.24009895 C17.24643948 67.8834211 15.89259912 66.52441169 14.54125214 65.16293144 C-1.23161468 48.76197214 -1.23161468 48.76197214 -22.3125 42.625 C-37.41424249 43.01146191 -45.11051994 48.84650323 -55.375 59.5625 C-56.16648437 60.43003906 -56.95796875 61.29757812 -57.7734375 62.19140625 C-58.50820313 62.78824219 -59.24296875 63.38507813 -60 64 C-64.65666424 63.46440006 -67.1796054 60.19805081 -70.296875 56.99609375 C-70.89050842 56.39821548 -71.48414185 55.80033722 -72.09576416 55.18434143 C-73.98767195 53.27565898 -75.86887499 51.3568046 -77.75 49.4375 C-79.03186002 48.14059164 -80.3144043 46.84435922 -81.59765625 45.54882812 C-84.73976072 42.37367043 -87.87230539 39.18935054 -91 36 C-88.74617427 30.67666373 -84.4049935 27.07069325 -80.37133789 23.05566406 C-78.95776647 21.64522161 -77.55786243 20.22112425 -76.15820312 18.796875 C-68.32055665 10.95367385 -60.68054154 5.27385484 -50.375 1.1875 C-49.6634375 0.88908203 -48.951875 0.59066406 -48.21875 0.28320312 C-33.88999492 -5.52965264 -14.57525111 -4.83077313 0 0 Z " fill="#A6DD58" transform="translate(661,322)"/>
<path d="M0 0 C4.7550916 2.44959264 7.78640771 6.96738464 11.0625 11.0625 C11.866875 11.784375 12.67125 12.50625 13.5 13.25 C20.00860981 20.39359613 22.3871867 28.53606669 22.2734375 38 C21.33364548 51.6443878 10.33812784 61.19211804 1.0625 70.0625 C-7.60201165 66.11262334 -17.64217029 55.71281406 -21.296875 46.953125 C-23.33966196 37.73567163 -23.7758152 26.7302286 -18.765625 18.4375 C-14.82948644 13.32388409 -10.45947647 8.65860723 -5.9375 4.0625 C-5.2053125 3.28777344 -4.473125 2.51304687 -3.71875 1.71484375 C-1.9375 0.0625 -1.9375 0.0625 0 0 Z " fill="#FDFBFB" transform="translate(386.9375,433.9375)"/>
<path d="M0 0 C4.14225745 1.63300534 6.93477844 4.63925535 10 7.75 C10.52078125 8.26304687 11.0415625 8.77609375 11.578125 9.3046875 C18.83399509 16.5972034 22.27295766 23.26897666 22.375 33.6875 C22.24113226 47.79683753 16.68715266 55.40903184 7 65 C6.14277344 65.96164062 5.28554688 66.92328125 4.40234375 67.9140625 C3.60957031 68.60242188 2.81679688 69.29078125 2 70 C-4.87829425 69.25591464 -10.73823324 61.02145486 -15 56 C-21.1965364 47.47560556 -22.14848067 39.34792688 -21 29 C-18.76139391 16.55116611 -8.65392012 8.40186419 0 0 Z " fill="#FBFCFC" transform="translate(551,433)"/>
<path d="M0 0 C0.495 1.485 0.495 1.485 1 3 C-10.25911599 14.37581112 -21.53241833 25.73733863 -32.82292557 37.08198643 C-38.06473273 42.34959787 -43.30175222 47.62181031 -48.52783203 52.9050293 C-53.08180567 57.50876988 -57.6444399 62.10371472 -62.21777892 66.6882214 C-64.64005207 69.1170247 -67.05770012 71.55006638 -69.46503448 73.99368477 C-72.14967928 76.71846429 -74.85361629 79.42356995 -77.55957031 82.12719727 C-78.75827003 83.35286156 -78.75827003 83.35286156 -79.98118591 84.60328674 C-80.71871597 85.33394348 -81.45624603 86.06460022 -82.21612549 86.81739807 C-82.85400623 87.45988778 -83.49188698 88.10237749 -84.14909744 88.76433659 C-86 90 -86 90 -88.23649216 89.69891262 C-88.81844975 89.46827146 -89.40040733 89.23763029 -90 89 C-89.44343373 88.58499048 -88.88686747 88.16998096 -88.31343555 87.7423954 C-82.81165378 83.56349801 -77.83472442 79.11773784 -72.97338867 74.21630859 C-72.22747467 73.47229294 -71.48156067 72.72827728 -70.71304321 71.9617157 C-68.27645458 69.52879797 -65.84708411 67.08881498 -63.41796875 64.6484375 C-61.71442091 62.94369593 -60.01050145 61.23932564 -58.30622864 59.53530884 C-54.74865016 55.976172 -51.194439 52.41371863 -47.64282227 48.84863281 C-43.09400785 44.28278431 -38.53859337 39.72359128 -33.98087597 35.1666317 C-30.46757599 31.65305972 -26.95688872 28.13688711 -23.4470768 24.61983109 C-21.76796428 22.93754138 -20.08824982 21.25585226 -18.40791893 19.57477951 C-16.06263304 17.22732257 -13.72067069 14.87660056 -11.37963867 12.52490234 C-10.68815231 11.83386917 -9.99666595 11.142836 -9.28422546 10.43086243 C-5.97040817 7.09497491 -2.847185 3.75553428 0 0 Z " fill="#FDF1EF" transform="translate(438,514)"/>
<path d="M0 0 C0 3.73107354 -0.75948185 4.14432705 -3.32421875 6.72265625 C-4.02353516 7.42583984 -4.72285156 8.12902344 -5.44335938 8.85351562 C-6.18392578 9.58248047 -6.92449219 10.31144531 -7.6875 11.0625 C-8.7693457 12.16174805 -8.7693457 12.16174805 -9.87304688 13.28320312 C-10.57880859 13.98509766 -11.28457031 14.68699219 -12.01171875 15.41015625 C-12.65584717 16.05090088 -13.29997559 16.69164551 -13.96362305 17.35180664 C-16.20113726 19.16279554 -18.29103139 20.06645045 -21 21 C-16.6309657 15.75715884 -12.16722236 10.48058696 -7 6 C-6.34 6 -5.68 6 -5 6 C-4.731875 5.38125 -4.46375 4.7625 -4.1875 4.125 C-3 2 -3 2 0 0 Z " fill="#EFF8DF" transform="translate(726,552)"/>
<path d="M0 0 C0.66 0.33 1.32 0.66 2 1 C-0.75900084 3.88250983 -3.53410104 6.74839821 -6.32519531 9.59985352 C-7.27248355 10.57230105 -8.21523779 11.54918665 -9.15332031 12.53051758 C-10.50168908 13.93946317 -11.86781893 15.33134373 -13.234375 16.72265625 C-14.45979004 17.98734741 -14.45979004 17.98734741 -15.70996094 19.27758789 C-18 21 -18 21 -20.29785156 20.76733398 C-21.14041504 20.38750366 -21.14041504 20.38750366 -22 20 C-21.50113281 19.64550781 -21.00226563 19.29101562 -20.48828125 18.92578125 C-12.94223398 13.33059719 -6.53245297 6.71419045 0 0 Z " fill="#FAE9E6" transform="translate(370,583)"/>
<path d="M0 0 C0 3 0 3 -1.93359375 5.12109375 C-3.60016321 6.6628655 -5.26682957 8.20453251 -6.93359375 9.74609375 C-9.01788922 12.01951244 -9.4431082 13.07471778 -10 16 C-12 17.125 -12 17.125 -14 18 C-14.33 18.66 -14.66 19.32 -15 20 C-15.99 19.67 -16.98 19.34 -18 19 C-12.12628112 12.53147414 -6.24971273 6.11083023 0 0 Z " fill="#E9615D" transform="translate(351,406)"/>
<path d="M0 0 C0.66 0.99 1.32 1.98 2 3 C1.278125 3.556875 0.55625 4.11375 -0.1875 4.6875 C-3.03709957 6.94457071 -3.03709957 6.94457071 -5.5 9.5625 C-7.89108787 11.89381067 -10.00215967 13.54159119 -13 15 C-13.66 14.67 -14.32 14.34 -15 14 C-14.16855469 13.24074219 -13.33710937 12.48148438 -12.48046875 11.69921875 C-11.38277925 10.69534886 -10.28512484 9.6914406 -9.1875 8.6875 C-8.64029297 8.18798828 -8.09308594 7.68847656 -7.52929688 7.17382812 C-4.96878163 4.83056872 -2.42060466 2.48855146 0 0 Z " fill="#AFDA66" transform="translate(665,551)"/>
<path d="M0 0 C3.85052606 0.25076955 5.68201567 2.36611645 8.25 5.0625 C8.95640625 5.79597656 9.6628125 6.52945313 10.390625 7.28515625 C10.92171875 7.85105469 11.4528125 8.41695312 12 9 C9 9 9 9 6 8 C5.34 7.01 4.68 6.02 4 5 C3.01 4.34 2.02 3.68 1 3 C0.2575 3.61875 -0.485 4.2375 -1.25 4.875 C-3.50515319 6.61761838 -5.45655832 7.79349562 -8 9 C-7.04270084 7.87411986 -6.08412105 6.7493285 -5.125 5.625 C-4.59132813 4.99851562 -4.05765625 4.37203125 -3.5078125 3.7265625 C-2.38567993 2.44163349 -1.20628025 1.20628025 0 0 Z " fill="#306D99" transform="translate(425,547)"/>
<path d="M0 0 C0.33 0.66 0.66 1.32 1 2 C-3.50401225 7.41888974 -8.17833991 12.9501495 -14 17 C-14.99 17 -15.98 17 -17 17 C-11.39 11.39 -5.78 5.78 0 0 Z " fill="#E86461" transform="translate(345,546)"/>
<path d="M0 0 C0.33 0.66 0.66 1.32 1 2 C-3.60136502 7.53601728 -8.46398272 12.39863498 -14 17 C-14.66 16.67 -15.32 16.34 -16 16 C-14.37660195 14.29115995 -12.70680947 12.62553283 -11 11 C-10.34 11 -9.68 11 -9 11 C-8.7525 10.38125 -8.505 9.7625 -8.25 9.125 C-6.76259631 6.59641373 -5.56321991 6.28160996 -3 5 C-1.79117904 2.99983534 -1.79117904 2.99983534 -1 1 C-0.67 0.67 -0.34 0.34 0 0 Z " fill="#D6E4EA" transform="translate(593,524)"/>
<path d="M0 0 C0.33 0.99 0.66 1.98 1 3 C-2.29281385 8.12332379 -6.79247254 11.95169124 -12 15 C-12 12 -12 12 -9.375 9.08203125 C-8.25750594 7.98449244 -7.13214357 6.89492105 -6 5.8125 C-5.42765625 5.25369141 -4.8553125 4.69488281 -4.265625 4.11914062 C-2.85037212 2.73926907 -1.42602845 1.36873266 0 0 Z " fill="#AEDB64" transform="translate(583,565)"/>
<path d="M0 0 C0.99 0.33 1.98 0.66 3 1 C1.25904321 2.82200133 -0.49177132 4.63229575 -2.25 6.4375 C-2.98669922 7.2119043 -2.98669922 7.2119043 -3.73828125 8.00195312 C-8.30164195 12.65658104 -8.30164195 12.65658104 -12 13 C-8.19524578 8.43969176 -4.25030379 4.14910608 0 0 Z " fill="#AFDC61" transform="translate(588,338)"/>
<path d="M0 0 C0 4.90312435 -3.70199631 7.61341357 -7 11 C-8.62541044 12.38332804 -10.27385413 13.74462118 -12 15 C-12.66 14.67 -13.32 14.34 -14 14 C-9.38 9.38 -4.76 4.76 0 0 Z " fill="#ADD863" transform="translate(680,536)"/>
<path d="M0 0 C6.09411765 2.14117647 6.09411765 2.14117647 8 5 C8 7.4375 8 7.4375 7 10 C4.4375 12.3125 4.4375 12.3125 2 14 C1.34 13.67 0.68 13.34 0 13 C0.804375 12.236875 1.60875 11.47375 2.4375 10.6875 C5.16799024 8.20569102 5.16799024 8.20569102 6 5 C5.38125 4.731875 4.7625 4.46375 4.125 4.1875 C2 3 2 3 0 0 Z " fill="#457A9C" transform="translate(513,528)"/>
<path d="M0 0 C0.33 0.66 0.66 1.32 1 2 C-2.42166518 6.70478962 -6.57905197 10.27653164 -11 14 C-11.66 13.67 -12.32 13.34 -13 13 C-8.71 8.71 -4.42 4.42 0 0 Z " fill="#EB5B57" transform="translate(195,407)"/>
<path d="M0 0 C0.66 1.32 1.32 2.64 2 4 C0.90716423 5.03295436 -0.19970579 6.05107835 -1.3125 7.0625 C-1.92738281 7.63097656 -2.54226563 8.19945312 -3.17578125 8.78515625 C-3.77777344 9.18605469 -4.37976563 9.58695312 -5 10 C-5.99 9.67 -6.98 9.34 -8 9 C-5.36 6.03 -2.72 3.06 0 0 Z " fill="#ADD770" transform="translate(731,483)"/>
<path d="M0 0 C0.61328125 1.84375 0.61328125 1.84375 1 4 C-0.8125 6.5 -0.8125 6.5 -3 9 C-3.350625 9.7425 -3.70125 10.485 -4.0625 11.25 C-5 13 -5 13 -8 14 C-6.6744419 10.37723685 -5.05653045 7.36494652 -2.875 4.1875 C-2.33617187 3.39730469 -1.79734375 2.60710937 -1.2421875 1.79296875 C-0.83226562 1.20128906 -0.42234375 0.60960937 0 0 Z " fill="#EA6C68" transform="translate(181,421)"/>
<path d="M0 0 C0 3.63053243 -1.2278255 4.95750337 -3.5546875 7.63671875 C-5.49136818 9.46347972 -7.46012234 10.27432067 -10 11 C-6.79239749 7.19364503 -3.59253891 3.45436433 0 0 Z " fill="#EAF5D4" transform="translate(715,562)"/>
<path d="M0 0 C0.66 0 1.32 0 2 0 C1.58286812 4.8665386 -0.45465326 6.79230533 -4 10 C-4.598125 10.598125 -5.19625 11.19625 -5.8125 11.8125 C-6.204375 12.204375 -6.59625 12.59625 -7 13 C-7.66 12.67 -8.32 12.34 -9 12 C-8.02546875 11.07767578 -8.02546875 11.07767578 -7.03125 10.13671875 C-6.1959375 9.32847656 -5.360625 8.52023437 -4.5 7.6875 C-3.6646875 6.88699219 -2.829375 6.08648438 -1.96875 5.26171875 C0.32828283 3.12262518 0.32828283 3.12262518 0 0 Z " fill="#E76865" transform="translate(355,533)"/>
<path d="M0 0 C0.66 0.33 1.32 0.66 2 1 C2 1.66 2 2.32 2 3 C1.38125 3.0825 0.7625 3.165 0.125 3.25 C-2.14390805 3.78597843 -2.14390805 3.78597843 -3 5.8125 C-3.33 6.534375 -3.66 7.25625 -4 8 C-5.29470975 9.37086915 -6.62150897 10.71340837 -8 12 C-8.66 11.67 -9.32 11.34 -10 11 C-6.7 7.37 -3.4 3.74 0 0 Z " fill="#F1F9E2" transform="translate(763,514)"/>
<path d="M0 0 C0.66 1.32 1.32 2.64 2 4 C2.66 4 3.32 4 4 4 C4.66 7.3 5.32 10.6 6 14 C2.73164037 9.64218716 0 5.5719851 0 0 Z " fill="#3B7399" transform="translate(490,494)"/>
<path d="M0 0 C0.93619813 3.15506142 1.1057123 5.96586502 1.0625 9.25 C1.05347656 10.14203125 1.04445313 11.0340625 1.03515625 11.953125 C1.02355469 12.62859375 1.01195312 13.3040625 1 14 C0.01 14.495 0.01 14.495 -1 15 C-2.01603857 9.20858017 -1.96263236 5.5415502 0 0 Z " fill="#4F84A7" transform="translate(489,442)"/>
<path d="M0 0 C0 3 0 3 -1.75 5.04296875 C-2.4925 5.75066406 -3.235 6.45835937 -4 7.1875 C-4.7425 7.90292969 -5.485 8.61835938 -6.25 9.35546875 C-7.11625 10.16951172 -7.11625 10.16951172 -8 11 C-8.66 10.67 -9.32 10.34 -10 10 C-6.92118304 6.12948725 -3.99926986 2.97088618 0 0 Z " fill="#E95B55" transform="translate(233,369)"/>
<path d="M0 0 C0.33 0 0.66 0 1 0 C0.93976735 1.60520004 0.85091401 3.20934327 0.75 4.8125 C0.70359375 5.70582031 0.6571875 6.59914063 0.609375 7.51953125 C0 10 0 10 -2.046875 11.82421875 C-3.01367188 12.40623047 -3.01367188 12.40623047 -4 13 C-3.79503906 12.39671875 -3.59007812 11.7934375 -3.37890625 11.171875 C-2.97478516 9.97304688 -2.97478516 9.97304688 -2.5625 8.75 C-2.29566406 7.96109375 -2.02882813 7.1721875 -1.75390625 6.359375 C-1.08045292 4.25178012 -0.50849405 2.15246027 0 0 Z " fill="#4C80A0" transform="translate(572,475)"/>
<path d="M0 0 C0 3.99476331 -1.28869085 5.1421336 -4 8 C-6.75 9.3125 -6.75 9.3125 -9 10 C-8.06409496 8.8944811 -7.12620142 7.79064547 -6.1875 6.6875 C-5.66542969 6.07261719 -5.14335938 5.45773437 -4.60546875 4.82421875 C-3.12827531 3.14575321 -1.59960869 1.56117966 0 0 Z " fill="#B0D96A" transform="translate(593,555)"/>
<path d="M0 0 C0.33 1.32 0.66 2.64 1 4 C-0.9375 6.25 -0.9375 6.25 -3 8 C-3.99 7.67 -4.98 7.34 -6 7 C-4.02 4.69 -2.04 2.38 0 0 Z " fill="#B0DB69" transform="translate(691,524)"/>
<path d="M0 0 C0 3 0 3 -2.3125 5.6875 C-5 8 -5 8 -8 8 C-5.36 5.36 -2.72 2.72 0 0 Z " fill="#B8DA7A" transform="translate(714,501)"/>
<path d="M0 0 C0.66 0.33 1.32 0.66 2 1 C0.02 3.31 -1.96 5.62 -4 8 C-4.99 7.67 -5.98 7.34 -7 7 C-4.66666667 4.66666667 -2.33333333 2.33333333 0 0 Z " fill="#B7DC74" transform="translate(699,516)"/>
<path d="M0 0 C0.99 0.66 1.98 1.32 3 2 C0.03 4.475 0.03 4.475 -3 7 C-2.25 2.25 -2.25 2.25 0 0 Z " fill="#F6E2DE" transform="translate(245,353)"/>
<path d="M0 0 C-0.75 1.9375 -0.75 1.9375 -2 4 C-4.125 4.75 -4.125 4.75 -6 5 C-6.33 4.34 -6.66 3.68 -7 3 C-2.25 0 -2.25 0 0 0 Z " fill="#4B82A6" transform="translate(437,326)"/>
<path d="M0 0 C0.185625 0.8971875 0.185625 0.8971875 0.375 1.8125 C0.95475985 4.26231348 0.95475985 4.26231348 3 7 C2.01 7 1.02 7 0 7 C-0.66 6.34 -1.32 5.68 -2 5 C-1.46428571 1.46428571 -1.46428571 1.46428571 0 0 Z " fill="#3F79A1" transform="translate(399,573)"/>
<path d="M0 0 C0.33 0.66 0.66 1.32 1 2 C-0.98 4.97 -0.98 4.97 -3 8 C-3.66 7.67 -4.32 7.34 -5 7 C-3.70700306 4.11562221 -2.34058637 2.12780579 0 0 Z " fill="#B2DA69" transform="translate(575,351)"/>
</svg>
